PathFileType	4	(X/Y/Z)	C:/Users/opensim2020/Desktop/walking_exp_matlab/subject06_walking19_straight_03.trc	
DataRate	CameraRate	NumFrames	NumMarkers	Units	OrigDataRate	OrigDataStartFrame	OrigNumFrames	
100.00	100.00	6	49	mm	100.00	3446	358	
Frame#	Time	LFHD			RFHD			LBHD			RBHD			C7			T10			CLAV			STRN			RBAK			LSHO			LUPA			LELB			LFRM			LWRA			LWRB			LFIN			RSHO			RUPA			RELB			RFRM			RWRA			RWRB			RFIN			LASI			RASI			LPSI			RPSI			LTHI			LKNE			LTIB			LANK			LHEE			LTOE			RTHI			RKNE			RTIB			RANK			RHEE			RTOE			*39			*40			*41			*42			*43			*44			*45			*46			*47			*48			
		X1	Y1	Z1	X2	Y2	Z2	X3	Y3	Z3	X4	Y4	Z4	X5	Y5	Z5	X6	Y6	Z6	X7	Y7	Z7	X8	Y8	Z8	X9	Y9	Z9	X10	Y10	Z10	X11	Y11	Z11	X12	Y12	Z12	X13	Y13	Z13	X14	Y14	Z14	X15	Y15	Z15	X16	Y16	Z16	X17	Y17	Z17	X18	Y18	Z18	X19	Y19	Z19	X20	Y20	Z20	X21	Y21	Z21	X22	Y22	Z22	X23	Y23	Z23	X24	Y24	Z24	X25	Y25	Z25	X26	Y26	Z26	X27	Y27	Z27	X28	Y28	Z28	X29	Y29	Z29	X30	Y30	Z30	X31	Y31	Z31	X32	Y32	Z32	X33	Y33	Z33	X34	Y34	Z34	X35	Y35	Z35	X36	Y36	Z36	X37	Y37	Z37	X38	Y38	Z38	X39	Y39	Z39	X40	Y40	Z40	X41	Y41	Z41	X42	Y42	Z42	X43	Y43	Z43	X44	Y44	Z44	X45	Y45	Z45	X46	Y46	Z46	X47	Y47	Z47	X48	Y48	Z48	X49	Y49	Z49	

180	1.790	1348.17053	-20.59730	1673.54175	1479.82678	-23.31603	1663.77588	1345.46851	-151.30792	1613.41858	1475.06189	-152.81961	1608.91028	1400.21265	-150.13396	1460.25415	1406.40845	-187.49466	1131.92810	1408.21606	-39.08057	1383.66846	1405.53052	0.11830	1207.29858	1477.07678	-226.26393	1291.04163	1242.52698	-79.61395	1414.32568	1166.67554	-73.90909	1212.20251	1152.61340	-74.04305	1100.00964	1134.17212	-35.23433	954.24768	1185.82727	26.73126	844.85590	1138.02795	-25.06784	835.36755	1143.89270	24.09076	759.20441	1565.93372	-91.27868	1414.64978	1652.31592	-128.95067	1215.42310	1663.63574	-117.65833	1093.52942	1680.87183	-96.08414	975.31433	1649.42944	-27.17749	840.88977	1688.82678	-80.86474	838.50800	1690.74854	-38.70938	765.01404	1312.97412	-2.39652	969.81274	1532.57874	-23.94253	974.89960	1327.35242	-163.56447	999.19788	1495.63477	-173.71724	998.65265	1249.65942	-50.76123	656.04980	1274.29126	-39.59637	493.79123	1286.82495	-55.20173	237.44643	1335.63184	-46.04518	67.37760	1381.93396	-86.15341	54.08762	1341.38196	98.56533	42.49630	1583.41602	-51.75240	636.95361	1566.42322	-32.85429	511.49799	1570.06189	-213.86035	328.64749	1537.44629	-353.28424	201.84244	1495.79480	-399.86526	211.82658	1523.46838	-277.98822	66.09478	1404.79138	-124.02000	1708.13550																											 
181	1.800	1346.91467	-14.86759	1674.03564	1478.54651	-17.71514	1664.29102	1344.14185	-145.72198	1614.23560	1473.69812	-147.32179	1609.72937	1398.86694	-144.78374	1460.76343	1405.19470	-181.90071	1132.40515	1407.07422	-33.75427	1384.31140	1404.46375	5.59553	1207.97717	1475.95740	-220.99442	1291.54199	1241.31946	-74.20441	1414.81665	1165.26416	-66.66895	1212.76123	1150.99939	-65.29028	1100.61609	1132.67493	-24.44195	955.37927	1184.49243	39.14445	846.95142	1136.49988	-12.79154	836.73798	1142.28882	37.50216	761.25409	1564.68396	-86.18378	1415.37866	1650.79602	-123.72158	1216.02954	1662.14575	-112.00236	1094.10437	1679.31311	-90.54391	975.88080	1648.14905	-21.63549	841.38403	1687.23352	-75.55235	838.96881	1689.49878	-33.34108	765.60315	1312.07422	3.27419	970.16034	1531.65710	-18.21928	975.66498	1326.25195	-157.82515	999.60876	1494.52405	-167.97122	999.37885	1249.17224	-47.17064	656.28949	1273.60986	-37.60102	493.71606	1286.62109	-54.84450	237.54298	1335.61353	-46.21450	67.45684	1381.92273	-86.25869	54.05487	1341.40796	98.50750	42.31641	1582.47986	-43.23175	638.18304	1565.14197	-22.72033	512.96838	1569.41248	-201.65382	328.56631	1536.88452	-339.91214	200.21513	1495.38599	-387.01331	208.72289	1523.00220	-260.95264	67.18037	1403.44214	-118.26424	1708.85486																											 
182	1.810	1345.70313	-9.22631	1674.51770	1477.33167	-12.20882	1664.82788	1342.79736	-140.17365	1615.02100	1472.43213	-141.92122	1610.60352	1397.61035	-139.50044	1461.31665	1403.98804	-176.37399	1132.93738	1405.91357	-28.45579	1384.91895	1403.34924	11.08433	1208.65845	1474.76172	-215.45895	1292.11389	1240.17603	-68.78292	1415.35938	1164.10498	-59.53914	1213.34351	1149.62476	-56.59945	1101.15198	1131.20068	-13.70912	956.69916	1183.27185	51.12986	849.10107	1135.04895	-0.50684	838.10242	1140.87927	50.94263	763.49402	1563.49744	-81.09749	1416.11292	1649.39172	-118.50668	1216.66406	1660.63025	-106.65726	1094.73059	1677.79297	-85.20658	976.48676	1646.94849	-16.10104	841.96454	1685.83936	-70.23701	839.67297	1688.16687	-28.04658	766.14124	1311.13037	8.77723	970.51611	1530.71350	-12.54707	976.54999	1325.11975	-152.20943	1000.08563	1493.41504	-162.26851	1000.18121	1248.82520	-43.50453	656.46252	1273.09070	-35.44993	493.65424	1286.37048	-54.40974	237.73761	1335.63879	-46.26768	67.46944	1381.98999	-86.22618	53.99400	1341.46582	98.58004	42.25203	1581.54810	-34.86566	639.45685	1563.78711	-12.81692	514.56769	1568.76404	-189.34367	327.96445	1536.19336	-326.04608	197.71220	1494.60034	-373.62161	204.66895	1523.31738	-242.92635	67.84065	1402.10706	-112.55481	1709.58716																											 
183	1.820	1344.54932	-3.65272	1675.01624	1476.05188	-6.97766	1665.36255	1341.54419	-134.75642	1615.75439	1471.12964	-136.62866	1611.39014	1396.36389	-134.23228	1461.83618	1402.73096	-170.91328	1133.45764	1404.81433	-23.15711	1385.53723	1402.30798	16.45687	1209.28882	1473.61499	-210.24710	1292.64526	1239.04980	-63.38803	1415.99451	1162.90881	-52.44241	1214.00793	1148.26221	-47.89915	1102.01794	1129.93909	-3.05040	958.03058	1182.14294	63.04279	851.30499	1133.74573	11.84876	839.66785	1139.51086	64.23090	765.88062	1562.30518	-76.04884	1416.84729	1648.10803	-113.32295	1217.33423	1659.28271	-101.14034	1095.43396	1676.44263	-79.73328	977.14478	1645.78381	-10.58288	842.63684	1684.32117	-64.83632	840.24792	1686.82178	-22.67897	766.68329	1310.14197	14.23119	970.85486	1529.77698	-6.81491	977.60736	1324.04358	-146.66527	1000.51276	1492.36511	-156.56494	1000.96356	1248.50464	-39.92826	656.50787	1272.68213	-33.19314	493.62534	1286.22461	-53.76607	237.77826	1335.64539	-46.31539	67.51807	1382.12830	-86.18439	53.83699	1341.49475	98.39043	42.05190	1580.38635	-26.97007	640.89923	1562.48340	-3.33033	516.21606	1568.11121	-176.96448	326.74399	1535.35083	-311.71027	194.42186	1493.64124	-359.69931	199.72112	1523.93286	-224.09618	68.09753	1400.82178	-106.96907	1710.29590																											 
184	1.830	1343.34949	1.88838	1675.48230	1475.01001	-1.45129	1665.89001	1340.26868	-129.28386	1616.45435	1469.85999	-131.35181	1612.12292	1395.15759	-128.99239	1462.34045	1401.55054	-165.42389	1133.89209	1403.79175	-17.94176	1386.14612	1401.23193	21.87902	1209.98010	1472.43652	-205.01378	1293.15833	1237.99231	-58.02871	1416.60193	1161.85852	-45.33211	1214.75879	1147.02979	-39.21281	1102.81396	1128.75867	7.62718	959.50507	1181.18030	74.73054	853.59534	1132.64551	23.95306	841.26117	1138.36658	77.37006	768.34552	1561.16602	-71.00414	1417.49011	1646.95435	-108.05427	1217.99597	1657.98694	-95.83468	1096.05151	1675.18298	-74.37291	977.78259	1644.58337	-5.08663	843.30139	1682.98730	-59.42077	840.78632	1685.52539	-17.20420	767.35779	1309.11255	19.54523	971.09875	1528.62891	-1.19102	978.53119	1323.06665	-141.16798	1000.87872	1491.38928	-150.91806	1001.78101	1247.60559	-36.07057	656.36597	1272.31116	-30.67853	493.55957	1286.53479	-53.08255	237.83191	1335.67883	-46.41238	67.54499	1381.97925	-86.28819	53.95077	1341.54150	98.55190	41.85141	1579.72473	-18.81892	642.29456	1561.21289	5.94812	517.91193	1567.25244	-164.79164	325.13815	1534.32703	-296.94980	190.48131	1492.33582	-345.09641	193.89339	1524.76868	-204.55278	67.99448	1399.55334	-101.45816	1710.95813																											 
185	1.840	1342.24829	7.35363	1675.93054	1473.95618	3.84509	1666.40698	1339.09485	-123.95378	1617.05847	1468.61987	-126.11431	1612.78772	1394.02502	-123.73586	1462.77344	1400.36865	-159.98921	1134.36536	1402.71667	-12.71862	1386.68225	1400.13904	27.24353	1210.58252	1471.14795	-199.63803	1293.62463	1236.98132	-52.69426	1417.24060	1160.79822	-38.18642	1215.47974	1145.91248	-30.69331	1103.68103	1127.52856	18.06862	961.06470	1180.34387	86.24176	855.96033	1131.57654	35.96934	843.02496	1137.36670	90.36859	770.83099	1560.05554	-65.99763	1418.07532	1645.90833	-102.73878	1218.54358	1656.81177	-90.60043	1096.61853	1673.99280	-69.03664	978.39075	1643.20215	0.64134	844.23468	1681.77051	-53.98179	841.37836	1684.15417	-11.74782	767.84607	1307.96326	24.78606	971.27045	1527.51611	4.41650	979.44141	1322.21033	-135.86400	1001.24048	1490.52844	-145.31377	1002.62274	1247.40576	-32.63531	656.48315	1271.94983	-27.97324	493.55606	1286.65588	-51.81706	237.83565	1335.72754	-46.33121	67.58710	1381.89685	-86.32936	54.05749	1341.60657	98.93799	41.66388	1578.71326	-10.48214	643.60175	1560.09583	14.91596	519.57806	1566.17310	-152.69237	323.48758	1533.17969	-281.59119	185.86349	1490.86560	-329.95609	187.45180	1526.01404	-184.64050	67.62492	1398.32275	-96.00463	1711.57849																											 
